<svg width="14" height="14" viewBox="0 0 14 14" fill="none" xmlns="http://www.w3.org/2000/svg">
<path d="M12.25 5.83337C12.25 9.91671 7 13.4167 7 13.4167C7 13.4167 1.75 9.91671 1.75 5.83337C1.75 4.44099 2.30312 3.10563 3.28769 2.12106C4.27226 1.1365 5.60761 0.583374 7 0.583374C8.39239 0.583374 9.72774 1.1365 10.7123 2.12106C11.6969 3.10563 12.25 4.44099 12.25 5.83337Z" stroke="#3C74D9" stroke-linecap="round" stroke-linejoin="round"/>
<path d="M7 7.58337C7.9665 7.58337 8.75 6.79987 8.75 5.83337C8.75 4.86688 7.9665 4.08337 7 4.08337C6.0335 4.08337 5.25 4.86688 5.25 5.83337C5.25 6.79987 6.0335 7.58337 7 7.58337Z" stroke="#3C74D9" stroke-linecap="round" stroke-linejoin="round"/>
</svg>
