<svg width="681.333" height="681.333" viewBox="0 0 511 511.9" xmlns="http://www.w3.org/2000/svg" xmlns:xlink="http://www.w3.org/1999/xlink" overflow="hidden"><path d="M510.949 150.5C509.75 123.301 505.352 104.602 499.051 88.3984 492.551 71.1992 482.551 55.8008 469.449 43 456.648 30 441.148 19.8984 424.148 13.5 407.852 7.19922 389.25 2.80078 362.051 1.60156 334.648 0.300781 325.949 -4.44089e-16 256.449 -4.44089e-16 186.949 -4.44089e-16 178.25 0.300781 150.949 1.5 123.75 2.69922 105.051 7.10156 88.8516 13.3984 71.6484 19.8984 56.25 29.8984 43.4492 43 30.4492 55.8008 20.3516 71.3008 13.9492 88.3008 7.64844 104.602 3.25 123.199 2.05078 150.398 0.75 177.801 0.449219 186.5 0.449219 256 0.449219 325.5 0.75 334.199 1.94922 361.5 3.14844 388.699 7.55078 407.398 13.8516 423.602 20.3516 440.801 30.4492 456.199 43.4492 469 56.25 482 71.75 492.102 88.75 498.5 105.051 504.801 123.648 509.199 150.852 510.398 178.148 511.602 186.852 511.898 256.352 511.898 325.852 511.898 334.551 511.602 361.852 510.398 389.051 509.199 407.75 504.801 423.949 498.5 458.352 485.199 485.551 458 498.852 423.602 505.148 407.301 509.551 388.699 510.75 361.5 511.949 334.199 512.25 325.5 512.25 256 512.25 186.5 512.148 177.801 510.949 150.5ZM464.852 359.5C463.75 384.5 459.551 398 456.051 407 447.449 429.301 429.75 447 407.449 455.602 398.449 459.102 384.852 463.301 359.949 464.398 332.949 465.602 324.852 465.898 256.551 465.898 188.25 465.898 180.051 465.602 153.148 464.398 128.148 463.301 114.648 459.102 105.648 455.602 94.5508 451.5 84.4492 445 76.25 436.5 67.75 428.199 61.25 418.199 57.1484 407.102 53.6484 398.102 49.4492 384.5 48.3516 359.602 47.1484 332.602 46.8516 324.5 46.8516 256.199 46.8516 187.898 47.1484 179.699 48.3516 152.801 49.4492 127.801 53.6484 114.301 57.1484 105.301 61.25 94.1992 67.75 84.1016 76.3516 75.8984 84.6484 67.3984 94.6484 60.8984 105.75 56.8008 114.75 53.3008 128.352 49.1016 153.25 48 180.25 46.8008 188.352 46.5 256.648 46.5 325.051 46.5 333.148 46.8008 360.051 48 385.051 49.1016 398.551 53.3008 407.551 56.8008 418.648 60.8984 428.75 67.3984 436.949 75.8984 445.449 84.1992 451.949 94.1992 456.051 105.301 459.551 114.301 463.75 127.898 464.852 152.801 466.051 179.801 466.352 187.898 466.352 256.199 466.352 324.5 466.051 332.5 464.852 359.5Z" fill="#707070"/><path d="M256.449 124.5C183.852 124.5 124.949 183.398 124.949 256 124.949 328.602 183.852 387.5 256.449 387.5 329.051 387.5 387.949 328.602 387.949 256 387.949 183.398 329.051 124.5 256.449 124.5ZM256.449 341.301C209.352 341.301 171.148 303.102 171.148 256 171.148 208.898 209.352 170.699 256.449 170.699 303.551 170.699 341.75 208.898 341.75 256 341.75 303.102 303.551 341.301 256.449 341.301Z" fill="#707070"/><path d="M423.852 119.301C423.852 136.254 410.105 150 393.148 150 376.195 150 362.449 136.254 362.449 119.301 362.449 102.344 376.195 88.6016 393.148 88.6016 410.105 88.6016 423.852 102.344 423.852 119.301Z" fill="#707070"/></svg>