<svg viewBox="0 0 512 512" xmlns="http://www.w3.org/2000/svg" xmlns:xlink="http://www.w3.org/1999/xlink" id="Capa_1" overflow="hidden" fill="#707070"><g><g><path d="M512 97.248C492.96 105.6 472.672 111.136 451.52 113.824 473.28 100.832 489.888 80.416 497.696 55.808 477.408 67.904 455.008 76.448 431.136 81.216 411.872 60.704 384.416 48 354.464 48 296.352 48 249.568 95.168 249.568 152.992 249.568 161.312 250.272 169.312 252 176.928 164.736 172.672 87.52 130.848 35.648 67.136 26.592 82.848 21.28 100.832 21.28 120.192 21.28 156.544 40 188.768 67.904 207.424 51.04 207.104 34.496 202.208 20.48 194.496 20.48 194.816 20.48 195.232 20.48 195.648 20.48 246.656 56.864 289.024 104.576 298.784 96.032 301.12 86.72 302.24 77.056 302.24 70.336 302.24 63.552 301.856 57.184 300.448 70.784 342.016 109.376 372.576 155.264 373.568 119.552 401.504 74.208 418.336 25.12 418.336 16.512 418.336 8.256 417.952-5.32907e-14 416.896 46.496 446.88 101.6 464 161.024 464 354.176 464 459.776 304 459.776 165.312 459.776 160.672 459.616 156.192 459.392 151.744 480.224 136.96 497.728 118.496 512 97.248Z" fill="#707070"/></g></g><g></g><g></g><g></g><g></g><g></g><g></g><g></g><g></g><g></g><g></g><g></g><g></g><g></g><g></g><g></g></svg>