<svg width="18" height="19" viewBox="0 0 18 19" fill="none" xmlns="http://www.w3.org/2000/svg">
<path d="M13.9247 5.56064C13.9247 4.22867 13.3801 2.95126 12.4105 2.00942C11.441 1.06757 10.126 0.538452 8.75484 0.538452C7.3837 0.538452 6.06872 1.06757 5.09917 2.00942C4.12963 2.95126 3.58495 4.22867 3.58495 5.56064C3.58495 11.4198 1 13.0939 1 13.0939H16.5097C16.5097 13.0939 13.9247 11.4198 13.9247 5.56064Z" stroke="#707070" stroke-linecap="round" stroke-linejoin="round"/>
<path d="M9.86243 16.7894C9.71232 17.0141 9.49686 17.2005 9.23762 17.3301C8.97839 17.4598 8.68448 17.528 8.38532 17.528C8.08615 17.528 7.79224 17.4598 7.53301 17.3301C7.27377 17.2005 7.05831 17.0141 6.9082 16.7894" stroke="#707070" stroke-linecap="round" stroke-linejoin="round"/>
</svg>
