<svg width="17" height="17" viewBox="0 0 17 17" fill="none" xmlns="http://www.w3.org/2000/svg">
<path d="M2.125 4.25H3.54167H14.875" stroke="black" stroke-linecap="round" stroke-linejoin="round"/>
<path d="M5.6665 4.24996V2.83329C5.6665 2.45757 5.81576 2.09723 6.08144 1.83156C6.34711 1.56588 6.70745 1.41663 7.08317 1.41663H9.9165C10.2922 1.41663 10.6526 1.56588 10.9182 1.83156C11.1839 2.09723 11.3332 2.45757 11.3332 2.83329V4.24996M13.4582 4.24996V14.1666C13.4582 14.5424 13.3089 14.9027 13.0432 15.1684C12.7776 15.434 12.4172 15.5833 12.0415 15.5833H4.95817C4.58245 15.5833 4.22211 15.434 3.95644 15.1684C3.69076 14.9027 3.5415 14.5424 3.5415 14.1666V4.24996H13.4582Z" stroke="black" stroke-linecap="round" stroke-linejoin="round"/>
</svg>
