<svg width="9" height="9" viewBox="0 0 9 9" fill="none" xmlns="http://www.w3.org/2000/svg">
<path d="M6.375 1.12499C6.47349 1.0265 6.59042 0.948372 6.7191 0.895069C6.84779 0.841766 6.98571 0.814331 7.125 0.814331C7.26429 0.814331 7.40221 0.841766 7.5309 0.895069C7.65958 0.948372 7.77651 1.0265 7.875 1.12499C7.97349 1.22348 8.05162 1.34041 8.10492 1.46909C8.15823 1.59778 8.18566 1.7357 8.18566 1.87499C8.18566 2.01428 8.15823 2.1522 8.10492 2.28089C8.05162 2.40957 7.97349 2.5265 7.875 2.62499L2.8125 7.68749L0.75 8.24999L1.3125 6.18749L6.375 1.12499Z" stroke="#261A30" stroke-linecap="round" stroke-linejoin="round"/>
</svg>
