<svg width="24" height="24" viewBox="0 0 24 24" fill="none" xmlns="http://www.w3.org/2000/svg">
<path d="M0.6 12C0.6 11.4948 0.632824 10.9976 0.696387 10.5103L0.101427 10.4327C0.239468 9.37443 0.515387 8.35951 0.910566 7.40655L1.4648 7.63638C1.84899 6.70991 2.35199 5.84483 2.95496 5.06019L2.47921 4.69459C3.11803 3.86329 3.86329 3.11803 4.69459 2.47921L5.06019 2.95496C5.84483 2.35199 6.70991 1.84899 7.63638 1.4648L7.40655 0.910566C8.35952 0.515386 9.37443 0.239467 10.4327 0.101427L10.5103 0.696387C10.9976 0.632823 11.4948 0.6 12 0.6C12.5052 0.6 13.0024 0.632824 13.4897 0.696387L13.5673 0.101427C14.6256 0.239468 15.6405 0.515387 16.5935 0.910566L16.3636 1.4648C17.2901 1.84899 18.1552 2.35199 18.9398 2.95496L19.3054 2.47921C20.1367 3.11803 20.882 3.86329 21.5208 4.69459L21.045 5.06019C21.648 5.84483 22.151 6.70991 22.5352 7.63638L23.0894 7.40655C23.4846 8.35951 23.7605 9.37443 23.8986 10.4327L23.3036 10.5103C23.3672 10.9976 23.4 11.4948 23.4 12C23.4 12.5052 23.3672 13.0024 23.3036 13.4897L23.8986 13.5673C23.7605 14.6256 23.4846 15.6405 23.0894 16.5935L22.5352 16.3636C22.151 17.2901 21.648 18.1552 21.045 18.9398L21.5208 19.3054C20.882 20.1367 20.1367 20.882 19.3054 21.5208L18.9398 21.045C18.1552 21.648 17.2901 22.151 16.3636 22.5352L16.5935 23.0894C15.6405 23.4846 14.6256 23.7605 13.5673 23.8986L13.4897 23.3036C13.0024 23.3672 12.5052 23.4 12 23.4C11.4948 23.4 10.9976 23.3672 10.5103 23.3036L10.4327 23.8986C9.37443 23.7605 8.35951 23.4846 7.40655 23.0894L7.63638 22.5352C6.70991 22.151 5.84483 21.648 5.06019 21.045L4.69459 21.5208C3.86329 20.882 3.11803 20.1367 2.47921 19.3054L2.95496 18.9398C2.35199 18.1552 1.84899 17.2901 1.4648 16.3636L0.910565 16.5935C0.515386 15.6405 0.239467 14.6256 0.101427 13.5673L0.696387 13.4897C0.632823 13.0024 0.6 12.5052 0.6 12Z" fill="white" stroke="#3C74D9" stroke-width="1.2" stroke-dasharray="3 3"/>
<path d="M12 8V16" stroke="#3C74D9" stroke-linecap="round" stroke-linejoin="round"/>
<path d="M8 12H16" stroke="#3C74D9" stroke-linecap="round" stroke-linejoin="round"/>
</svg>
