<svg width="19" height="19" viewBox="0 0 19 19" fill="none" xmlns="http://www.w3.org/2000/svg">
<path d="M9.5 11.875C10.8117 11.875 11.875 10.8117 11.875 9.5C11.875 8.18832 10.8117 7.125 9.5 7.125C8.18832 7.125 7.125 8.18832 7.125 9.5C7.125 10.8117 8.18832 11.875 9.5 11.875Z" stroke="#969696" stroke-linecap="round" stroke-linejoin="round"/>
<path d="M15.3582 11.875C15.2528 12.1137 15.2214 12.3786 15.2679 12.6354C15.3145 12.8922 15.4369 13.1292 15.6194 13.3158L15.6669 13.3633C15.8141 13.5103 15.9309 13.685 16.0106 13.8772C16.0903 14.0694 16.1313 14.2754 16.1313 14.4835C16.1313 14.6916 16.0903 14.8976 16.0106 15.0898C15.9309 15.282 15.8141 15.4567 15.6669 15.6037C15.5199 15.7509 15.3452 15.8677 15.153 15.9474C14.9608 16.0271 14.7548 16.0681 14.5467 16.0681C14.3386 16.0681 14.1326 16.0271 13.9404 15.9474C13.7482 15.8677 13.5736 15.7509 13.4265 15.6037L13.379 15.5562C13.1924 15.3737 12.9554 15.2513 12.6986 15.2047C12.4418 15.1581 12.1769 15.1896 11.9382 15.295C11.704 15.3953 11.5043 15.5619 11.3637 15.7743C11.223 15.9867 11.1475 16.2356 11.1465 16.4904V16.625C11.1465 17.0449 10.9797 17.4476 10.6828 17.7445C10.3858 18.0415 9.9831 18.2083 9.56317 18.2083C9.14324 18.2083 8.74052 18.0415 8.44358 17.7445C8.14665 17.4476 7.97984 17.0449 7.97984 16.625V16.5537C7.97371 16.2917 7.88889 16.0375 7.73641 15.8243C7.58393 15.6112 7.37084 15.4488 7.12484 15.3583C6.88606 15.2529 6.62118 15.2215 6.36437 15.268C6.10756 15.3146 5.87058 15.437 5.684 15.6195L5.6365 15.667C5.48945 15.8143 5.31483 15.931 5.12262 16.0107C4.9304 16.0904 4.72437 16.1314 4.5163 16.1314C4.30822 16.1314 4.10219 16.0904 3.90997 16.0107C3.71776 15.931 3.54314 15.8143 3.39609 15.667C3.24887 15.52 3.13209 15.3454 3.05241 15.1532C2.97273 14.9609 2.93172 14.7549 2.93172 14.5468C2.93172 14.3388 2.97273 14.1327 3.05241 13.9405C3.13209 13.7483 3.24887 13.5737 3.39609 13.4266L3.44359 13.3791C3.6261 13.1925 3.74853 12.9556 3.79509 12.6988C3.84166 12.4419 3.81022 12.1771 3.70484 11.9383C3.60448 11.7041 3.43785 11.5044 3.22546 11.3638C3.01306 11.2231 2.76417 11.1476 2.50942 11.1466H2.37484C1.95491 11.1466 1.55218 10.9798 1.25525 10.6829C0.958319 10.3859 0.791504 9.98322 0.791504 9.56329C0.791504 9.14337 0.958319 8.74064 1.25525 8.44371C1.55218 8.14677 1.95491 7.97996 2.37484 7.97996H2.44609C2.70812 7.97383 2.96226 7.88901 3.17545 7.73653C3.38864 7.58405 3.55103 7.37096 3.6415 7.12496C3.74689 6.88618 3.77832 6.62131 3.73176 6.36449C3.68519 6.10768 3.56276 5.8707 3.38025 5.68413L3.33275 5.63663C3.18554 5.48958 3.06876 5.31495 2.98908 5.12274C2.9094 4.93053 2.86838 4.72449 2.86838 4.51642C2.86838 4.30834 2.9094 4.10231 2.98908 3.9101C3.06876 3.71788 3.18554 3.54326 3.33275 3.39621C3.4798 3.249 3.65443 3.13221 3.84664 3.05253C4.03885 2.97285 4.24489 2.93184 4.45296 2.93184C4.66104 2.93184 4.86707 2.97285 5.05928 3.05253C5.2515 3.13221 5.42612 3.249 5.57317 3.39621L5.62067 3.44371C5.80725 3.62622 6.04422 3.74865 6.30104 3.79521C6.55785 3.84178 6.82272 3.81034 7.0615 3.70496H7.12484C7.35899 3.60461 7.55868 3.43797 7.69934 3.22558C7.84 3.01318 7.91549 2.76429 7.9165 2.50954V2.37496C7.9165 1.95503 8.08332 1.55231 8.38025 1.25537C8.67718 0.958441 9.07991 0.791626 9.49984 0.791626C9.91976 0.791626 10.3225 0.958441 10.6194 1.25537C10.9164 1.55231 11.0832 1.95503 11.0832 2.37496V2.44621C11.0842 2.70096 11.1597 2.94985 11.3003 3.16224C11.441 3.37464 11.6407 3.54127 11.8748 3.64163C12.1136 3.74701 12.3785 3.77844 12.6353 3.73188C12.8921 3.68531 13.1291 3.56288 13.3157 3.38038L13.3632 3.33288C13.5102 3.18566 13.6848 3.06888 13.8771 2.9892C14.0693 2.90952 14.2753 2.86851 14.4834 2.86851C14.6915 2.86851 14.8975 2.90952 15.0897 2.9892C15.2819 3.06888 15.4565 3.18566 15.6036 3.33288C15.7508 3.47992 15.8676 3.65455 15.9473 3.84676C16.0269 4.03898 16.068 4.24501 16.068 4.45308C16.068 4.66116 16.0269 4.86719 15.9473 5.05941C15.8676 5.25162 15.7508 5.42624 15.6036 5.57329L15.5561 5.62079C15.3736 5.80737 15.2511 6.04435 15.2046 6.30116C15.158 6.55797 15.1895 6.82285 15.2948 7.06163V7.12496C15.3952 7.35911 15.5618 7.55881 15.7742 7.69947C15.9866 7.84013 16.2355 7.91561 16.4903 7.91663H16.6248C17.0448 7.91663 17.4475 8.08344 17.7444 8.38037C18.0414 8.67731 18.2082 9.08003 18.2082 9.49996C18.2082 9.91988 18.0414 10.3226 17.7444 10.6195C17.4475 10.9165 17.0448 11.0833 16.6248 11.0833H16.5536C16.2988 11.0843 16.0499 11.1598 15.8376 11.3005C15.6252 11.4411 15.4585 11.6408 15.3582 11.875V11.875Z" stroke="#969696" stroke-linecap="round" stroke-linejoin="round"/>
</svg>
