<svg width="512" height="512" viewBox="0 0 24 24" xmlns="http://www.w3.org/2000/svg" xmlns:xlink="http://www.w3.org/1999/xlink" id="Bold" overflow="hidden"><path d="M23.994 24 23.994 23.999 24 23.999 24 15.197C24 10.891 23.073 7.574 18.039 7.574 15.619 7.574 13.995 8.902 13.332 10.161L13.262 10.161 13.262 7.976 8.489 7.976 8.489 23.999 13.459 23.999 13.459 16.065C13.459 13.976 13.855 11.956 16.442 11.956 18.991 11.956 19.029 14.34 19.029 16.199L19.029 24Z" fill="#707070"/><path d="M0.396 7.977 5.372 7.977 5.372 24 0.396 24Z" fill="#707070"/><path d="M2.882 0C1.291 0 0 1.291 0 2.882 0 4.473 1.291 5.791 2.882 5.791 4.473 5.791 5.764 4.473 5.764 2.882 5.763 1.291 4.472 4.44089e-16 2.882 4.44089e-16Z" fill="#707070"/></svg>