<svg width="19" height="19" viewBox="0 0 19 19" fill="none" xmlns="http://www.w3.org/2000/svg">
<path d="M12.6665 3.16663H14.2498C14.6698 3.16663 15.0725 3.33344 15.3694 3.63037C15.6664 3.92731 15.8332 4.33003 15.8332 4.74996V15.8333C15.8332 16.2532 15.6664 16.6559 15.3694 16.9529C15.0725 17.2498 14.6698 17.4166 14.2498 17.4166H4.74984C4.32991 17.4166 3.92718 17.2498 3.63025 16.9529C3.33332 16.6559 3.1665 16.2532 3.1665 15.8333V4.74996C3.1665 4.33003 3.33332 3.92731 3.63025 3.63037C3.92718 3.33344 4.32991 3.16663 4.74984 3.16663H6.33317" stroke="#969696" stroke-linecap="round" stroke-linejoin="round"/>
<path d="M11.8752 1.58337H7.12516C6.68794 1.58337 6.3335 1.93782 6.3335 2.37504V3.95837C6.3335 4.3956 6.68794 4.75004 7.12516 4.75004H11.8752C12.3124 4.75004 12.6668 4.3956 12.6668 3.95837V2.37504C12.6668 1.93782 12.3124 1.58337 11.8752 1.58337Z" stroke="#969696" stroke-linecap="round" stroke-linejoin="round"/>
</svg>
